# xmcd
#
# Track frame offsets:
#	150
#	20445
#	37412
#	53190
#	71365
#	88735
#	106422
#	122437
#	139097
#	159657
#	177172
#	193877
#	211712
#	226050
#
# Disc length: 3281 seconds
#
# Revision: 1
# Processed by: cddbd v1.5.2PL0 Copyright (c) Steve Scherf et al.
# Submitted via: audiograbber 1.81.02
#
DISCID=be0ccf0e
DTITLE=MISSORA HIBARI 320 - VOLUME06
DYEAR=1900
DGENRE=Blues
TTITLE0=SASSAME YUKI
TTITLE1=YAGUIRI NO WATASHI
TTITLE2=MITIZURE
TTITLE3=URAMATI SAKABA
TTITLE4=KITAGUNI NO HARU
TTITLE5=LAU ISU O UWAA
TTITLE6=OMAE NI HORETA
TTITLE7=YUME OI ZAKE
TTITLE8=SUBARU
TTITLE9=FUSANKOU E KAERE
TTITLE10=KIYO DAI BUNE
TTITLE11=OOSAKA SHIGURE
TTITLE12=ANTAROU TSUKIYO UTA
TTITLE13=IZU NO ODORI-KO
EXTD=
EXTT0=
EXTT1=
EXTT2=
EXTT3=
EXTT4=
EXTT5=
EXTT6=
EXTT7=
EXTT8=
EXTT9=
EXTT10=
EXTT11=
EXTT12=
EXTT13=
PLAYORDER=
